<?xml version="1.0" standalone="no"?>
<!DOCTYPE svg PUBLIC "-//W3C//DTD SVG 20010904//EN"
 "http://www.w3.org/TR/2001/REC-SVG-20010904/DTD/svg10.dtd">
<svg version="1.0" xmlns="http://www.w3.org/2000/svg"
 width="5000.000000pt" height="5000.000000pt" viewBox="0 0 5000.000000 5000.000000"
 preserveAspectRatio="xMidYMid meet">

<g transform="translate(0.000000,5000.000000) scale(0.100000,-0.100000)"
fill="#000000" stroke="none">
<path d="M34670 42237 c-3 -2 -66 -7 -141 -11 -148 -7 -182 -9 -399 -32 -1751
-184 -3485 -986 -5070 -2344 -540 -463 -1184 -1114 -1675 -1695 -869 -1026
-1701 -2270 -2312 -3455 l-80 -155 -86 170 c-229 451 -624 1122 -962 1635
-1534 2323 -3353 4047 -5260 4985 -1032 508 -2036 785 -3130 865 -208 15 -694
20 -910 9 -1110 -55 -2234 -333 -3370 -835 -236 -104 -704 -335 -930 -459
-2274 -1248 -4099 -3412 -5090 -6037 -447 -1183 -720 -2489 -772 -3703 -14
-314 -8 -1006 11 -1265 85 -1181 328 -2258 746 -3305 801 -2006 2198 -3830
4555 -5950 1012 -911 2015 -1736 4360 -3590 2408 -1903 3727 -2983 5035 -4120
2093 -1819 3919 -3598 5612 -5467 108 -119 198 -210 200 -203 3 14 303 347
638 710 1138 1230 2475 2554 3790 3755 1610 1470 3283 2871 5899 4940 1337
1058 1571 1244 1991 1580 1522 1217 2549 2092 3409 2900 1690 1588 2824 3009
3587 4495 703 1370 1093 2785 1194 4340 25 374 22 1168 -5 1415 -2 19 -6 78
-10 130 -8 127 -23 285 -40 430 -3 19 -12 94 -20 165 -89 740 -275 1549 -534
2325 -195 581 -373 1014 -646 1565 -452 915 -991 1733 -1640 2490 -179 209
-297 337 -530 574 -1015 1030 -2128 1783 -3505 2371 -762 325 -1514 547 -2270
671 -211 34 -555 75 -710 85 -58 3 -116 8 -130 11 -33 6 -794 16 -800 10z"/>
</g>
</svg>
