<?xml version="1.0" standalone="no"?>
<!DOCTYPE svg PUBLIC "-//W3C//DTD SVG 20010904//EN"
 "http://www.w3.org/TR/2001/REC-SVG-20010904/DTD/svg10.dtd">
<svg version="1.0" xmlns="http://www.w3.org/2000/svg"
 width="5000.000000pt" height="5000.000000pt" viewBox="0 0 5000.000000 5000.000000"
 preserveAspectRatio="xMidYMid meet">

<g transform="translate(0.000000,5000.000000) scale(0.100000,-0.100000)"
fill="#000000" stroke="none">
<path d="M29439 46256 c-2 -2 -132 -7 -287 -11 -156 -4 -294 -8 -305 -10 -12
-2 -101 -6 -197 -10 -96 -4 -191 -8 -210 -10 -19 -2 -100 -6 -180 -10 -131 -5
-491 -26 -710 -40 -241 -16 -418 -32 -800 -71 -523 -53 -1117 -140 -2155 -314
-1068 -179 -1748 -269 -2560 -340 -71 -6 -140 -13 -152 -15 -12 -2 -127 -6
-255 -10 -128 -3 -242 -8 -253 -10 -39 -7 -665 -20 -1000 -20 -331 0 -684 8
-1010 23 -269 12 -1291 8 -1490 -6 -599 -42 -1177 -153 -1665 -321 -358 -122
-533 -200 -1015 -451 -717 -373 -964 -488 -1345 -627 -228 -82 -635 -147
-1095 -173 -99 -5 -216 -12 -260 -15 -44 -2 -127 -7 -185 -10 -441 -24 -780
-55 -945 -86 -720 -136 -1359 -389 -1920 -762 -213 -141 -307 -217 -455 -366
-521 -525 -921 -1157 -1175 -1856 -103 -285 -195 -742 -240 -1200 -14 -146
-15 -641 0 -785 3 -30 10 -104 16 -165 30 -321 56 -474 126 -750 172 -681 471
-1312 806 -1700 372 -433 871 -816 1420 -1092 177 -88 528 -221 725 -273 l42
-11 -54 -67 c-299 -374 -546 -928 -654 -1467 -55 -275 -67 -401 -66 -715 0
-247 3 -302 22 -415 36 -213 70 -355 152 -645 110 -390 122 -444 128 -595 9
-255 -57 -455 -238 -725 -147 -218 -325 -426 -748 -870 -1201 -1260 -1914
-2405 -2267 -3639 -169 -593 -224 -1051 -240 -2026 -14 -854 -75 -1288 -237
-1683 -115 -280 -285 -537 -843 -1277 -149 -198 -325 -434 -390 -525 -605
-847 -847 -1420 -920 -2180 -3 -36 -10 -99 -15 -140 -31 -243 -43 -523 -44
-970 -1 -397 8 -802 19 -820 1 -3 6 -47 9 -97 4 -51 9 -103 11 -115 2 -13 6
-54 10 -93 30 -325 131 -839 219 -1122 14 -43 32 -107 41 -142 9 -35 25 -83
35 -105 11 -23 37 -86 59 -141 47 -119 139 -324 289 -645 271 -580 339 -738
459 -1070 158 -437 191 -843 91 -1146 -77 -235 -224 -406 -631 -732 -434 -348
-848 -750 -1057 -1027 -262 -347 -499 -808 -605 -1174 -149 -519 -161 -1056
-34 -1548 89 -348 221 -645 397 -893 86 -121 311 -353 427 -439 304 -228 667
-359 1108 -402 121 -11 449 -14 562 -4 140 12 342 37 408 51 38 8 72 14 77 14
5 0 26 -37 48 -82 98 -211 239 -396 492 -648 402 -402 728 -607 1078 -677 137
-28 489 -25 643 4 362 70 628 182 1247 527 662 369 857 499 1919 1272 259 189
473 344 475 344 3 0 36 -39 74 -88 328 -414 798 -693 1304 -772 193 -30 476
-17 668 31 729 182 1330 835 1486 1614 39 195 45 278 41 530 -5 309 -44 566
-139 898 l-33 118 166 126 c439 335 897 698 1771 1404 477 385 1803 1457 2273
1837 234 189 251 201 271 188 12 -7 120 -79 241 -158 454 -300 719 -444 1065
-581 307 -121 583 -199 895 -251 300 -51 798 -38 1175 30 921 167 1530 518
1926 1111 172 257 316 637 379 998 45 258 63 654 44 950 -33 532 -171 1196
-400 1930 -87 279 -85 271 -65 278 27 11 616 390 856 551 1239 834 2707 2045
4425 3651 1028 960 1800 1704 3910 3765 600 585 1180 1152 1290 1260 808 789
1118 1081 1950 1840 1188 1083 1664 1550 2297 2251 368 408 563 596 1183 1139
559 490 1004 917 1249 1198 358 412 545 774 746 1447 161 542 184 616 232 745
27 74 81 199 119 277 l69 142 88 26 c498 149 949 363 1327 629 433 305 826
711 1115 1151 65 99 162 245 214 325 157 238 223 389 271 624 13 61 44 182 69
269 128 446 199 931 220 1512 11 294 14 823 6 985 -40 768 -200 1496 -473
2150 -291 697 -756 1412 -1211 1865 -302 300 -757 648 -1211 925 -253 154
-830 412 -1260 562 -323 113 -927 284 -1120 317 -100 18 -444 59 -545 66 -52
4 -106 9 -120 11 -89 15 -634 9 -940 -10 -680 -43 -1395 -154 -2270 -351 -636
-144 -806 -178 -950 -190 -89 -8 -266 13 -483 56 -139 27 -162 36 -390 138
-396 178 -452 201 -667 272 -548 181 -1070 283 -2025 394 -155 18 -218 25
-275 30 -36 3 -105 10 -155 15 -416 44 -1149 90 -1730 110 -267 8 -1597 14
-1606 6z m908 -912 c14 -4 -2 -25 -77 -102 -245 -252 -383 -539 -446 -927 -21
-134 -32 -688 -14 -778 44 -231 244 -388 473 -375 148 9 277 81 355 198 72
107 75 124 83 495 7 350 14 404 62 525 60 147 138 235 372 415 210 163 409
365 465 475 17 33 23 37 52 34 18 -1 83 -5 143 -8 294 -17 879 -66 1190 -101
929 -104 1466 -205 1945 -365 146 -49 227 -83 641 -268 282 -126 457 -173 819
-222 381 -50 486 -38 1376 161 1250 279 1973 375 2819 374 275 0 450 -14 740
-55 375 -55 1180 -311 1645 -523 l55 -26 -355 0 c-354 0 -426 -3 -635 -22
-423 -39 -992 -193 -1480 -401 -522 -222 -1116 -584 -1481 -903 -167 -146
-441 -417 -586 -582 -155 -177 -759 -986 -863 -1158 -216 -356 -370 -805 -435
-1267 -117 -828 75 -1858 510 -2729 99 -199 198 -364 373 -619 303 -443 513
-717 755 -985 45 -49 80 -91 78 -93 -6 -5 -480 131 -891 256 -526 160 -1006
288 -1515 402 -245 55 -255 59 -400 141 -261 148 -347 225 -612 541 -352 421
-414 520 -512 811 -119 356 -196 791 -226 1267 -21 344 -11 994 20 1380 84
1011 289 1622 714 2130 137 163 174 253 163 394 -17 229 -195 408 -422 423
-188 14 -303 -53 -484 -278 -511 -633 -782 -1406 -876 -2494 -3 -38 -8 -88
-10 -110 -2 -22 -7 -87 -10 -145 -4 -58 -8 -127 -11 -155 -13 -130 -16 -875
-5 -1090 10 -197 31 -452 46 -560 71 -521 180 -958 326 -1307 17 -40 33 -80
35 -89 4 -12 -27 -23 -163 -57 -231 -57 -300 -66 -513 -66 -185 1 -185 1 -267
33 -116 46 -366 174 -508 261 -66 40 -131 80 -145 88 -42 25 -320 466 -449
713 -131 251 -221 492 -260 692 -41 210 -50 679 -21 1027 46 543 157 997 350
1435 60 136 76 219 61 313 -34 197 -187 351 -384 384 -143 24 -298 -32 -404
-145 -49 -53 -68 -85 -116 -195 -244 -557 -379 -1127 -428 -1810 -11 -155 -8
-882 4 -942 3 -14 8 -52 12 -85 4 -33 15 -102 26 -154 10 -51 19 -94 19 -96 0
-1 -59 22 -131 51 -343 140 -677 227 -1059 276 -136 17 -683 17 -835 0 -290
-33 -631 -91 -1125 -191 -324 -66 -476 -91 -740 -121 -475 -55 -803 -34 -1515
95 -104 19 -251 45 -326 58 -129 22 -142 27 -237 81 -259 146 -425 308 -598
583 -176 278 -263 578 -309 1063 -13 133 -14 185 -5 265 23 209 56 337 121
466 95 186 73 383 -58 530 -144 160 -388 196 -576 86 -204 -120 -363 -536
-406 -1064 -19 -234 38 -714 126 -1058 72 -282 192 -564 331 -777 l71 -107
-47 -7 c-121 -16 -430 -78 -547 -109 -278 -72 -693 -210 -1875 -623 -479 -167
-737 -243 -1152 -341 -524 -123 -930 -191 -1413 -235 -397 -37 -725 -68 -789
-76 -98 -12 -91 -16 -246 140 -318 320 -692 883 -1071 1615 -235 454 -394 997
-471 1605 -20 165 -18 656 5 797 24 151 49 248 98 372 46 118 57 203 40 296
-44 236 -287 407 -520 366 -154 -28 -277 -121 -344 -261 -92 -193 -156 -440
-198 -760 -17 -131 -19 -552 -4 -747 53 -679 251 -1423 528 -1988 209 -426
617 -1109 849 -1423 77 -104 78 -112 20 -164 -31 -28 -51 -36 -112 -47 -271
-46 -791 -176 -1080 -269 -110 -36 -496 -148 -1490 -432 -425 -122 -603 -198
-1035 -440 -110 -62 -267 -145 -350 -185 -331 -160 -456 -190 -850 -201 -378
-12 -730 54 -1145 213 -585 224 -1217 704 -1505 1143 -296 450 -510 1057 -579
1645 -26 219 -31 319 -31 630 1 322 14 462 71 765 72 385 170 661 364 1029
244 461 633 943 937 1159 381 271 814 472 1293 602 294 80 502 113 849 136 87
6 103 5 99 -7 -46 -112 -102 -264 -126 -344 -121 -394 -240 -1053 -269 -1485
-10 -150 -10 -643 0 -790 34 -489 160 -1049 335 -1495 130 -330 360 -733 500
-877 171 -177 466 -177 640 -1 71 72 108 141 128 235 29 137 2 242 -101 391
-322 473 -514 1044 -580 1732 -16 166 -22 592 -9 730 33 375 107 823 189 1140
101 391 244 671 388 762 22 14 93 42 159 64 66 22 132 45 146 53 15 7 124 33
242 56 226 44 349 81 615 185 342 133 638 274 1285 613 367 191 491 248 754
346 232 87 439 146 681 194 202 41 582 99 590 90 2 -2 -16 -56 -41 -119 -123
-311 -224 -746 -255 -1088 -11 -132 -8 -710 5 -811 4 -25 13 -106 22 -180 51
-451 156 -930 236 -1082 55 -103 169 -193 283 -222 243 -64 482 73 557 317 26
89 21 200 -15 302 -74 207 -158 739 -177 1115 -17 349 -2 554 65 866 93 432
284 853 388 854 29 1 126 41 166 69 31 23 34 23 274 17 133 -4 278 -9 322 -11
400 -24 1338 -24 1825 0 58 3 175 7 260 10 278 10 490 24 730 50 25 3 94 10
154 15 60 6 125 13 145 15 20 3 122 14 226 25 495 54 1056 132 1520 210 632
107 783 132 1115 185 509 81 1046 155 1118 155 l24 0 -28 -37 c-213 -277 -465
-842 -588 -1318 -49 -189 -106 -578 -126 -855 -13 -190 -13 -528 1 -666 26
-261 93 -588 185 -896 55 -184 91 -257 159 -324 206 -200 542 -166 700 72 86
129 97 262 39 446 -84 268 -150 579 -175 830 -21 206 12 670 71 1008 52 296
213 729 377 1014 131 228 402 523 663 721 52 40 109 86 125 102 30 30 30 30
180 37 83 4 173 9 200 11 52 4 435 21 755 34 102 4 313 8 470 10 156 1 287 4
289 7 6 6 413 4 438 -2z m13856 -1943 c30 -16 120 -79 199 -139 143 -110 271
-237 418 -417 123 -150 277 -410 385 -648 64 -142 112 -205 197 -259 46 -29
56 -43 93 -123 223 -477 394 -1143 441 -1719 3 -39 9 -118 14 -176 9 -108 5
-938 -5 -1090 -26 -375 -57 -639 -96 -835 -101 -498 -285 -976 -450 -1171
-113 -133 -364 -371 -544 -515 -218 -175 -360 -278 -620 -451 -246 -165 -276
-186 -415 -294 -332 -259 -580 -357 -1090 -434 -355 -53 -716 -47 -1185 21
-992 142 -1613 525 -2311 1424 -175 225 -467 644 -579 830 -122 202 -261 515
-348 780 -262 803 -284 1550 -62 2150 52 142 162 366 226 460 70 103 530 722
624 841 171 214 484 527 710 710 188 153 549 376 855 529 367 185 641 285
1055 385 339 82 455 92 1065 94 261 1 480 4 485 8 6 3 53 9 105 13 52 4 208
17 345 30 138 12 291 23 341 24 83 1 97 -2 147 -28z m-14508 -5556 c288 -18
655 -108 940 -232 192 -84 624 -396 1235 -893 239 -195 786 -507 1110 -634
205 -80 243 -86 530 -93 338 -8 502 11 820 95 171 45 178 46 330 46 222 0 245
-9 393 -157 184 -185 396 -344 641 -480 198 -110 285 -143 504 -193 645 -145
1042 -250 1627 -429 563 -172 1047 -307 1418 -396 90 -21 98 -25 91 -44 -3
-11 -10 -150 -14 -310 -11 -386 -41 -652 -105 -954 -30 -139 -44 -183 -102
-326 -140 -346 -380 -733 -567 -913 -169 -164 -394 -329 -621 -456 -166 -93
-518 -238 -970 -400 -301 -108 -347 -128 -575 -242 -280 -140 -483 -264 -709
-432 -158 -118 -226 -184 -360 -352 -261 -325 -464 -632 -771 -1165 -337 -586
-532 -894 -665 -1055 -200 -240 -488 -523 -625 -614 -161 -107 -460 -264 -715
-374 -184 -80 -536 -186 -988 -297 -252 -63 -336 -78 -697 -130 -666 -96 -938
-164 -1230 -310 -214 -107 -409 -274 -527 -451 -162 -245 -230 -584 -204
-1019 10 -155 31 -402 46 -515 13 -109 16 -333 6 -475 -49 -669 -158 -1131
-342 -1457 -193 -343 -472 -594 -904 -813 -471 -239 -970 -393 -1475 -455 -91
-11 -181 -23 -200 -26 -19 -3 -172 -7 -340 -10 -735 -11 -867 -13 -900 -18
-19 -3 -75 -10 -125 -16 -435 -53 -832 -256 -1082 -552 -226 -268 -361 -558
-414 -893 -21 -130 -16 -416 10 -569 66 -394 155 -630 506 -1346 225 -458 250
-515 425 -984 377 -1010 604 -1864 674 -2541 22 -207 15 -627 -13 -803 -63
-407 -202 -705 -434 -929 -202 -195 -467 -330 -842 -428 -328 -87 -511 -110
-845 -109 -223 0 -270 3 -370 23 -242 47 -446 107 -660 194 -357 144 -570 269
-1275 747 -843 571 -1469 974 -1758 1129 -261 141 -572 239 -917 287 -195 28
-623 26 -835 -4 -482 -68 -887 -210 -1245 -438 -276 -174 -566 -452 -870 -833
-514 -645 -730 -1013 -841 -1439 -70 -265 -97 -637 -65 -906 44 -376 126 -648
423 -1406 315 -801 429 -1150 495 -1510 19 -106 22 -160 23 -355 0 -248 -10
-323 -62 -470 -113 -316 -391 -614 -667 -713 -389 -141 -841 19 -1140 403
-116 148 -170 253 -256 495 -34 96 -92 252 -128 345 -420 1098 -888 1698
-1478 1894 -168 56 -294 75 -464 67 -363 -15 -707 -168 -1085 -482 -258 -214
-430 -377 -1035 -984 -338 -339 -680 -674 -760 -745 -438 -387 -853 -665
-1178 -789 -530 -203 -1177 -251 -1592 -120 -414 130 -689 482 -814 1040 -94
417 -38 896 152 1308 102 221 250 465 379 626 175 218 523 544 959 895 261
211 511 468 627 645 97 149 195 382 243 576 15 60 32 126 38 147 l11 38 235
78 c880 292 1537 621 1982 992 429 358 946 971 1261 1496 320 534 517 1121
562 1678 3 39 8 95 11 125 20 191 -1 687 -41 948 -108 720 -475 1243 -1076
1531 -299 144 -603 216 -964 228 -570 19 -1171 -135 -1712 -438 -472 -264
-1148 -839 -1466 -1246 -39 -50 -73 -90 -75 -88 -14 13 3 611 23 855 55 652
113 897 310 1290 162 324 361 625 775 1170 792 1045 986 1366 1141 1885 l41
140 80 -3 c93 -4 273 11 408 34 130 22 422 96 549 139 58 19 108 35 111 35 3
0 5 -19 4 -42 -12 -214 -16 -266 -29 -339 -18 -99 -47 -193 -85 -269 -79 -157
-80 -321 -3 -462 37 -67 130 -153 206 -189 170 -79 384 -41 517 92 98 98 216
389 264 652 34 181 41 288 41 598 l0 265 125 43 c580 199 1064 427 1435 674
238 159 389 291 820 717 473 467 559 540 1080 910 751 534 1012 788 1387 1345
515 769 835 1548 933 2280 23 166 31 520 16 670 -80 794 -480 1474 -1083 1842
-389 237 -836 353 -1308 340 -248 -8 -404 -30 -655 -94 -352 -90 -693 -232
-1051 -439 -53 -30 -97 -54 -98 -52 -2 2 -8 73 -14 158 -19 264 -61 464 -181
870 -68 230 -96 347 -106 435 -4 33 -9 71 -11 85 -7 38 -6 400 1 456 32 257
69 425 135 624 115 345 265 611 483 860 162 185 454 400 543 400 46 0 234 30
351 56 146 32 473 136 526 167 23 13 112 60 197 104 85 44 227 121 315 170
199 113 373 200 490 246 50 20 266 86 480 147 215 61 568 163 786 226 218 63
400 114 404 114 4 0 -16 -42 -43 -92 -67 -125 -136 -289 -167 -396 -103 -364
-136 -1079 -69 -1526 50 -339 156 -636 307 -863 311 -465 803 -741 1467 -825
134 -16 532 -16 670 0 528 64 947 198 1500 478 1159 587 2134 1580 2922 2974
262 464 549 1057 855 1765 36 83 70 155 76 162 12 12 305 103 412 128 127 30
396 75 532 90 213 23 474 19 713 -9 229 -28 503 -73 860 -141 151 -29 418 -69
595 -89 571 -66 1080 -29 1920 139 869 174 1152 207 1580 180z m-7876 -866
c-111 -235 -324 -653 -439 -859 -777 -1393 -1710 -2303 -2872 -2801 -375 -161
-686 -234 -1040 -246 -441 -15 -772 82 -996 291 -61 57 -162 194 -162 220 0 9
22 10 83 3 143 -14 530 -10 702 7 643 65 1184 243 1730 568 310 185 452 292
645 487 152 153 287 317 470 572 68 96 174 239 234 319 122 161 217 309 323
505 39 72 115 211 168 310 54 99 121 214 149 255 64 94 196 230 223 230 30 0
134 38 173 63 19 13 166 67 325 122 160 54 304 104 320 111 17 7 31 9 33 4 2
-4 -30 -77 -69 -161z m-2136 -511 c-88 -161 -147 -254 -238 -373 -51 -66 -152
-203 -225 -305 -343 -479 -510 -639 -910 -867 -398 -228 -812 -366 -1225 -408
-38 -4 -81 -9 -95 -11 -106 -12 -365 -15 -489 -5 -157 14 -319 36 -329 45 -16
17 31 454 63 577 34 136 190 408 365 639 32 42 145 164 251 272 185 186 196
196 239 202 25 3 90 12 145 21 137 21 617 80 805 100 85 9 173 18 195 20 91
10 469 46 635 60 216 19 499 56 720 94 58 10 113 19 122 20 13 1 7 -17 -29
-81z m20815 -2223 c182 -25 503 -59 657 -69 44 -3 130 -9 190 -13 163 -12 861
-8 1005 5 68 6 125 10 126 9 2 -1 -21 -79 -51 -172 -30 -94 -92 -299 -139
-457 -171 -576 -298 -848 -524 -1118 -261 -313 -533 -576 -1222 -1180 -178
-157 -406 -360 -505 -451 -225 -208 -580 -568 -749 -759 -235 -265 -480 -521
-837 -875 -407 -403 -592 -577 -1399 -1315 -1088 -996 -1073 -982 -3455 -3310
-2898 -2834 -4258 -4114 -5515 -5190 -898 -769 -1808 -1472 -2537 -1958 -277
-185 -634 -414 -639 -409 -2 2 -40 94 -84 204 -99 249 -157 376 -352 768 -85
171 -175 357 -200 415 -252 580 -273 932 -71 1230 129 191 239 267 468 320
136 32 279 40 795 44 513 4 652 12 965 57 549 79 1088 246 1620 503 974 471
1500 1161 1709 2241 25 130 60 366 71 480 3 33 8 78 10 100 35 304 36 586 5
925 -44 469 -49 576 -29 717 16 119 44 180 104 226 70 54 210 119 345 161 135
42 291 71 640 121 140 20 334 50 430 66 268 45 851 194 1252 320 385 120 1066
469 1315 674 54 44 180 161 282 260 452 443 609 662 1159 1616 276 480 428
713 646 994 104 134 133 165 210 224 284 216 647 411 1006 540 426 153 873
332 1045 418 430 216 935 610 1149 897 255 342 437 664 586 1041 68 171 93
256 134 454 80 383 125 805 126 1170 l0 114 38 -7 c20 -3 119 -17 220 -31z
m-27443 -3902 c263 -360 257 -753 -22 -1503 -114 -307 -271 -696 -327 -815
-196 -413 -475 -732 -901 -1032 -109 -76 -338 -223 -348 -223 -4 0 -7 153 -7
339 0 305 -2 345 -19 400 -38 121 -123 219 -238 273 -252 119 -543 -5 -632
-270 -20 -58 -21 -83 -21 -462 0 -379 1 -404 21 -462 28 -83 81 -161 143 -210
28 -22 51 -44 51 -48 0 -4 -31 -33 -70 -65 -152 -124 -337 -301 -615 -586
-355 -364 -494 -499 -639 -617 -212 -174 -448 -311 -634 -371 -51 -16 -211
-55 -357 -85 -402 -85 -537 -116 -625 -141 -125 -36 -120 -36 -117 10 9 112
46 364 77 517 217 1080 811 2157 1804 3273 138 155 146 164 488 525 132 140
284 304 336 364 l95 109 72 18 c40 10 100 34 134 53 90 50 390 251 641 429
261 185 356 244 570 352 356 181 755 299 1027 304 l57 1 56 -77z m1159 -556
c145 -233 223 -490 234 -782 8 -189 0 -334 -29 -503 -94 -561 -345 -1146 -754
-1762 -172 -258 -257 -367 -413 -524 -192 -194 -307 -286 -782 -626 -559 -400
-690 -510 -1140 -960 -437 -438 -575 -555 -837 -712 -358 -214 -733 -373
-1378 -584 -181 -59 -431 -143 -555 -186 -394 -139 -651 -207 -843 -224 l-79
-7 6 134 c4 74 9 184 12 244 3 68 9 111 16 114 6 2 46 27 88 56 105 71 280
123 755 220 290 59 447 96 553 130 273 86 586 258 868 476 180 139 311 263
769 723 551 556 625 618 975 821 515 299 799 496 1077 745 380 343 683 786
886 1300 351 887 443 1169 492 1505 21 145 36 368 29 428 -4 26 -4 47 -1 47 3
0 26 -33 51 -73z m-5649 -12276 c0 -31 -15 -341 -19 -401 -58 -784 -256 -1367
-636 -1875 -245 -328 -633 -695 -969 -918 -163 -109 -231 -147 -556 -310 -148
-75 -316 -166 -373 -203 -57 -36 -104 -65 -106 -63 -5 6 -237 508 -291 629
-113 254 -109 238 -107 401 6 530 176 1009 503 1420 272 342 856 829 1239
1036 315 170 716 282 1055 296 48 2 260 -8 260 -12z m980 -726 c69 -204 108
-660 86 -990 -54 -787 -363 -1433 -1067 -2225 -114 -129 -347 -360 -441 -437
-302 -250 -755 -485 -1375 -717 -139 -52 -264 -97 -278 -101 -24 -6 -26 -3
-53 109 -16 63 -48 178 -73 255 -51 161 -51 163 23 242 72 77 168 136 491 298
311 157 473 251 670 388 435 304 903 768 1197 1188 380 543 618 1203 705 1955
30 257 27 248 62 172 15 -34 40 -96 53 -137z m7900 -3609 c302 -20 551 -102
841 -278 324 -195 864 -539 864 -550 0 -7 -225 -191 -1125 -918 -275 -222
-664 -537 -865 -699 -1384 -1119 -1980 -1589 -1991 -1568 -4 7 -57 139 -117
293 -295 750 -358 1003 -341 1359 21 425 152 695 635 1312 381 486 603 688
927 843 198 95 406 155 657 191 74 10 388 27 415 22 6 -1 50 -4 100 -7z
m-6727 -4901 c71 -21 194 -106 277 -191 200 -203 427 -615 640 -1158 36 -93
65 -169 63 -170 -49 -34 -452 -325 -728 -526 -915 -668 -1103 -792 -1710
-1130 -631 -352 -862 -442 -1145 -443 -83 0 -137 5 -175 16 -202 60 -620 418
-806 692 -30 44 -54 85 -54 90 0 6 26 23 58 39 160 78 436 255 667 428 367
274 598 488 1340 1237 779 786 1055 1020 1305 1105 88 30 189 34 268 11z"/>
<path d="M42390 41814 c-686 -50 -1089 -211 -1585 -633 -143 -121 -377 -358
-475 -481 -287 -360 -480 -783 -539 -1185 -20 -133 -31 -312 -26 -436 19 -501
124 -788 467 -1276 237 -336 387 -581 536 -878 111 -220 186 -340 286 -457
192 -224 464 -368 821 -434 152 -28 577 -26 810 5 274 35 475 91 685 188 131
61 497 291 555 348 285 285 83 776 -320 776 -121 1 -175 -22 -406 -164 -286
-176 -379 -210 -664 -242 -301 -34 -546 -18 -674 42 -112 54 -152 106 -296
393 -151 300 -320 577 -566 927 -222 316 -278 434 -305 636 -19 139 -14 363
10 484 48 240 182 509 362 724 90 108 324 332 435 416 323 245 542 316 1034
331 480 16 737 -32 904 -166 91 -74 185 -232 246 -415 58 -175 70 -252 69
-442 -1 -266 -30 -389 -146 -617 -68 -134 -117 -205 -214 -307 -147 -156 -263
-226 -420 -251 -48 -8 -74 -6 -149 11 -106 25 -190 62 -210 93 -8 12 -19 46
-25 76 -11 59 -14 424 -4 595 9 170 -25 284 -115 386 -207 235 -605 186 -746
-92 -53 -104 -57 -144 -59 -559 -1 -362 0 -392 21 -496 52 -256 135 -416 299
-577 156 -155 357 -255 650 -323 105 -25 139 -28 289 -29 190 0 268 12 441 70
291 97 555 289 800 585 207 248 389 617 453 915 58 270 74 618 37 838 -80 488
-275 901 -550 1169 -250 243 -541 372 -976 433 -112 16 -608 28 -740 19z"/>
<path d="M28110 36853 c-185 -13 -484 -66 -671 -118 -271 -76 -937 -295 -1255
-415 -523 -196 -1087 -475 -1564 -774 -379 -238 -989 -692 -1370 -1020 -336
-289 -672 -611 -900 -861 -424 -466 -774 -960 -1086 -1530 -369 -675 -550
-1272 -634 -2087 -61 -594 16 -1090 256 -1650 87 -205 286 -592 363 -708 287
-430 675 -753 1166 -970 354 -156 671 -228 1110 -249 682 -34 1514 141 2440
514 622 251 1044 460 1535 763 448 276 939 673 1545 1249 474 450 770 827
1092 1393 226 396 408 799 629 1393 113 301 191 577 248 872 81 419 109 697
110 1100 1 240 -3 303 -22 439 -104 728 -335 1295 -702 1721 -471 547 -1085
867 -1790 934 -83 8 -410 11 -500 4z m471 -958 c29 -25 85 -61 124 -80 100
-50 273 -183 391 -300 142 -142 268 -335 292 -450 19 -88 25 -265 13 -389 -33
-346 -104 -527 -571 -1451 -471 -932 -710 -1346 -1010 -1743 -329 -437 -780
-908 -1190 -1243 -517 -422 -1108 -772 -1807 -1070 -444 -189 -886 -367 -1043
-419 -187 -62 -430 -120 -599 -143 -214 -29 -508 -20 -716 23 -214 44 -506
187 -701 344 -113 91 -144 128 -144 174 0 61 -27 166 -56 223 -27 52 -28 60
-32 247 -4 163 6 361 23 462 2 14 13 90 25 170 74 501 190 863 421 1316 361
706 845 1345 1444 1904 355 331 625 556 1050 873 491 367 866 598 1368 842
379 184 653 291 1271 494 676 223 837 258 1203 260 l191 1 53 -45z m1625
-2210 c-3 -148 -9 -290 -12 -315 -76 -636 -138 -886 -361 -1465 -242 -625
-509 -1140 -802 -1550 -138 -193 -274 -349 -505 -580 -504 -503 -1035 -947
-1440 -1204 -304 -193 -739 -426 -1056 -565 -786 -347 -1363 -521 -2010 -607
-55 -8 -193 -13 -330 -13 -329 1 -549 35 -776 119 -92 34 -378 174 -371 181 1
2 45 -1 97 -5 397 -34 806 15 1283 154 204 59 346 112 762 283 681 281 1042
447 1392 643 816 455 1523 1036 2157 1773 534 622 838 1119 1532 2511 209 419
303 625 390 852 33 87 40 99 47 80 5 -12 6 -143 3 -292z"/>
<path d="M25434 34315 c-119 -26 -228 -102 -293 -203 -16 -26 -44 -94 -61
-152 -38 -125 -83 -217 -154 -320 -92 -130 -120 -246 -93 -376 21 -97 58 -167
126 -235 184 -184 479 -179 656 12 167 181 343 558 370 794 13 112 -42 263
-128 353 -102 106 -279 159 -423 127z"/>
<path d="M25778 32505 c-175 -48 -260 -145 -439 -504 -140 -281 -229 -544
-229 -673 0 -369 412 -582 718 -371 93 64 148 149 191 293 43 144 106 285 222
495 96 175 113 229 107 347 -5 73 -11 99 -41 163 -95 200 -322 307 -529 250z"/>
<path d="M23517 32200 c-74 -13 -172 -64 -233 -122 -76 -72 -120 -167 -239
-517 -52 -156 -118 -333 -146 -392 -62 -134 -77 -211 -60 -308 33 -186 164
-328 346 -376 75 -19 135 -19 210 0 88 23 142 53 212 118 50 47 72 78 112 160
65 133 125 290 196 511 31 98 72 215 91 259 47 108 61 198 47 282 -33 192
-174 341 -360 380 -74 16 -104 17 -176 5z"/>
<path d="M32415 35399 c-177 -26 -335 -176 -373 -354 -6 -27 -14 -133 -17
-235 -4 -102 -8 -198 -10 -214 -22 -184 -26 -834 -7 -996 55 -466 195 -788
444 -1027 155 -148 278 -213 413 -219 133 -6 250 40 344 134 139 138 174 331
94 511 -32 74 -83 133 -165 193 -77 56 -114 104 -150 198 -77 197 -95 500 -63
1065 9 149 17 338 18 420 2 135 0 157 -22 218 -71 208 -286 338 -506 306z"/>
<path d="M34884 34325 c-139 -30 -259 -127 -319 -257 -98 -214 -190 -615 -209
-908 -3 -47 -8 -128 -12 -180 -11 -176 38 -313 147 -414 241 -223 622 -133
740 174 16 42 23 92 30 215 16 292 49 473 126 700 68 198 67 299 -3 437 -89
176 -305 277 -500 233z"/>
<path d="M13093 34175 c-85 -18 -157 -59 -224 -125 -100 -98 -127 -176 -153
-440 -40 -387 -47 -708 -20 -801 24 -80 50 -126 107 -187 90 -95 201 -142 332
-142 131 0 242 47 332 142 93 99 119 179 128 383 11 272 16 351 31 490 27 245
28 266 10 335 -23 90 -53 145 -113 210 -62 68 -148 116 -240 135 -82 18 -109
18 -190 0z"/>
<path d="M16680 31206 c-117 -33 -233 -124 -283 -222 -70 -138 -153 -520 -174
-804 -11 -149 -8 -437 6 -560 50 -434 219 -833 473 -1117 131 -146 209 -196
339 -216 248 -38 479 130 521 380 25 149 -21 277 -149 417 -207 225 -296 522
-280 931 8 187 27 316 78 520 46 187 50 219 38 300 -20 123 -112 261 -217 322
-100 59 -245 79 -352 49z"/>
<path d="M32174 30675 c-161 -36 -247 -110 -348 -300 -107 -203 -226 -376
-336 -487 -86 -87 -101 -98 -155 -113 -217 -61 -360 -283 -324 -505 36 -225
229 -390 455 -390 139 0 374 97 522 216 85 68 222 210 317 329 144 180 351
530 395 665 29 89 25 214 -9 302 -79 204 -310 330 -517 283z"/>
<path d="M18390 28896 c-120 -35 -226 -119 -283 -224 -36 -66 -57 -164 -57
-272 -1 -47 -11 -188 -24 -315 -37 -367 -34 -542 15 -737 83 -332 324 -598
690 -758 124 -55 182 -70 270 -70 299 0 518 278 444 563 -42 163 -136 261
-321 336 -102 42 -171 92 -191 138 -14 35 -20 241 -8 318 12 80 35 335 41 461
5 113 3 156 -10 215 -32 143 -120 253 -252 316 -68 32 -86 36 -172 39 -60 2
-114 -2 -142 -10z"/>
<path d="M18689 25625 c-3 -2 -47 -5 -99 -6 -354 -7 -833 -120 -1290 -304
-146 -59 -453 -198 -475 -215 -5 -4 -48 -27 -95 -51 -378 -194 -807 -476
-1385 -910 -789 -594 -846 -641 -1126 -926 -571 -583 -982 -1247 -1218 -1967
-58 -177 -120 -411 -146 -556 -18 -97 -25 -121 -68 -225 -35 -84 -51 -236 -43
-405 4 -74 11 -155 16 -180 5 -25 14 -128 20 -230 41 -733 224 -1286 567
-1710 72 -89 254 -267 338 -331 239 -183 556 -330 874 -405 801 -190 1839 -36
2954 438 683 291 1359 702 1912 1164 162 135 444 415 559 554 271 327 595 869
819 1370 256 572 438 1199 502 1730 24 193 29 635 9 810 -89 807 -487 1479
-1129 1906 -390 260 -832 415 -1250 439 -60 3 -140 8 -176 10 -36 3 -68 3 -70
0z m341 -944 c214 -37 427 -124 615 -250 l91 -60 -8 -103 c-4 -57 -10 -116
-12 -133 -3 -16 -8 -52 -11 -80 -53 -401 -204 -865 -414 -1270 -242 -466 -543
-868 -966 -1290 -464 -465 -940 -820 -1605 -1199 -706 -403 -1125 -553 -1665
-597 -178 -15 -654 -6 -830 15 -251 31 -427 93 -499 178 l-37 43 6 100 c53
926 466 1814 1181 2541 184 187 286 273 632 537 992 755 1355 994 1887 1244
422 198 792 307 1175 347 91 9 352 -4 460 -23z m1370 -2041 c-67 -792 -498
-1859 -1051 -2607 -83 -112 -385 -418 -534 -542 -864 -717 -2050 -1269 -3030
-1410 -231 -34 -261 -36 -505 -35 -163 1 -267 6 -340 17 -496 76 -827 295
-1024 677 -26 50 -46 94 -43 96 3 3 31 0 63 -5 332 -60 949 -77 1309 -36 509
58 950 196 1495 469 211 106 583 316 801 452 1032 643 1867 1462 2401 2354
172 288 351 666 444 940 l19 55 3 -145 c2 -80 -2 -206 -8 -280z"/>
<path d="M17251 23484 c-115 -31 -241 -134 -290 -238 -34 -74 -53 -171 -46
-237 6 -56 5 -60 -29 -105 -62 -82 -80 -143 -81 -275 0 -113 1 -116 38 -191
73 -149 190 -234 353 -257 150 -22 290 33 419 163 110 111 167 214 212 377 36
129 17 385 -38 507 -89 203 -323 314 -538 256z"/>
<path d="M15500 21906 c-153 -43 -253 -139 -325 -310 -21 -51 -48 -89 -101
-147 -40 -42 -85 -101 -99 -130 -124 -245 0 -553 259 -639 120 -40 236 -31
353 25 168 82 376 355 459 602 73 217 -10 441 -206 556 -91 53 -237 71 -340
43z"/>
<path d="M26981 23234 c-116 -31 -208 -102 -284 -221 -147 -228 -383 -331
-772 -339 -194 -3 -224 0 -620 61 -513 79 -789 115 -1045 135 -118 9 -176 12
-496 25 -74 3 -162 1 -200 -5 -189 -29 -344 -174 -383 -358 -51 -244 104 -488
344 -540 28 -6 145 -13 261 -17 419 -11 693 -40 1404 -150 412 -63 463 -68
695 -68 307 0 509 31 753 115 309 106 571 293 756 538 137 182 182 310 158
452 -47 272 -309 443 -571 372z"/>
<path d="M10950 21364 c-127 -34 -231 -125 -295 -259 -87 -181 -165 -490 -190
-755 -4 -36 -9 -78 -11 -95 -10 -61 -12 -454 -3 -560 25 -304 117 -555 257
-698 88 -91 234 -145 359 -133 212 21 378 176 413 387 17 98 0 186 -55 297
-53 106 -65 178 -65 400 0 243 41 544 95 692 13 36 35 97 49 135 124 340 -200
684 -554 589z"/>
<path d="M17557 16339 c-225 -53 -386 -293 -347 -517 34 -198 185 -348 385
-383 50 -8 141 -10 315 -6 305 8 646 -6 800 -32 141 -25 218 -49 333 -106 181
-90 244 -146 742 -655 525 -538 1086 -918 1742 -1181 306 -123 738 -249 853
-249 225 0 415 161 453 383 30 180 -62 375 -223 470 -25 14 -88 38 -140 52
-343 96 -528 160 -763 263 -252 111 -522 271 -760 451 -217 164 -374 311 -802
752 -201 207 -310 301 -490 419 -301 198 -639 305 -1069 340 -156 12 -975 12
-1029 -1z"/>
<path d="M12008 14281 c-129 -42 -220 -122 -285 -252 -219 -438 -357 -930
-407 -1444 -32 -330 -44 -691 -26 -781 30 -149 122 -267 256 -331 69 -33 89
-38 171 -41 77 -4 106 0 164 18 117 38 212 120 270 233 37 72 47 145 53 387
13 586 97 1014 278 1415 27 61 63 142 79 182 103 252 -21 525 -279 612 -78 27
-194 27 -274 2z"/>
<path d="M7531 10014 c-188 -50 -272 -155 -566 -709 -221 -416 -268 -500 -343
-615 -148 -229 -299 -393 -453 -494 -131 -85 -213 -118 -478 -192 -217 -61
-361 -286 -323 -506 23 -133 88 -237 192 -307 134 -89 251 -101 463 -47 576
148 1033 503 1388 1078 108 174 152 253 284 503 136 258 213 398 287 518 96
157 118 219 118 327 0 300 -283 521 -569 444z"/>
<path d="M9385 27175 c-137 -30 -206 -80 -320 -229 -46 -61 -123 -153 -170
-205 -134 -147 -170 -226 -168 -371 2 -135 47 -235 150 -332 141 -131 340
-155 523 -63 87 43 272 244 434 469 68 94 96 178 96 281 0 131 -47 242 -142
332 -112 106 -262 149 -403 118z"/>
<path d="M6770 16300 c-211 -37 -362 -203 -385 -425 -17 -156 -57 -271 -138
-389 -113 -165 -126 -330 -40 -499 118 -234 439 -311 663 -158 113 77 279 348
349 572 64 204 95 433 72 537 -38 178 -180 320 -358 357 -74 16 -95 17 -163 5z"/>
</g>
</svg>
