<?xml version="1.0" standalone="no"?>
<!DOCTYPE svg PUBLIC "-//W3C//DTD SVG 20010904//EN"
 "http://www.w3.org/TR/2001/REC-SVG-20010904/DTD/svg10.dtd">
<svg version="1.0" xmlns="http://www.w3.org/2000/svg"
 width="1920.000000pt" height="1920.000000pt" viewBox="0 0 1920.000000 1920.000000"
 preserveAspectRatio="xMidYMid meet">

<g transform="translate(0.000000,1920.000000) scale(0.100000,-0.100000)"
fill="#000000" stroke="none">
<path d="M12180 14023 c-102 -1 -635 -7 -1185 -13 -1041 -11 -1468 -22 -1595
-41 -200 -30 -400 -128 -580 -285 -78 -69 -623 -586 -1020 -969 -58 -56 -350
-335 -650 -620 -545 -518 -707 -673 -895 -855 -55 -53 -293 -280 -530 -505
-1127 -1073 -1170 -1116 -1245 -1256 -45 -85 -87 -225 -101 -338 -28 -222 32
-460 163 -654 36 -52 328 -364 888 -947 119 -124 497 -520 840 -880 1142
-1199 1187 -1245 1268 -1303 97 -69 175 -108 282 -141 275 -83 566 -40 805
119 74 49 448 397 915 849 63 62 309 296 545 521 410 390 521 496 770 736 61
58 355 339 655 624 300 285 597 568 660 630 63 61 261 251 440 422 180 171
355 348 390 392 130 163 195 307 225 493 15 95 46 447 65 728 17 258 20 280
37 280 27 0 243 50 353 82 570 164 963 468 1095 846 169 485 -79 983 -628
1259 -193 96 -409 150 -643 160 l-151 6 -28 65 c-114 261 -361 476 -639 556
-72 21 -297 52 -316 44 -3 -2 -88 -4 -190 -5z m382 -522 c145 -46 277 -179
330 -331 21 -59 23 -81 21 -250 -1 -102 -18 -469 -37 -816 -20 -348 -36 -635
-36 -638 0 -12 -200 -6 -313 9 -63 8 -158 26 -210 40 -92 24 -227 72 -227 82
0 2 17 33 39 68 125 208 145 487 52 720 -100 250 -306 425 -577 492 -100 24
-276 21 -379 -6 -366 -97 -615 -415 -615 -786 0 -310 160 -579 430 -723 152
-81 319 -113 486 -93 l102 13 56 -36 c257 -164 612 -266 984 -283 73 -3 134
-9 136 -12 9 -17 -63 -838 -80 -910 -27 -120 -63 -171 -259 -366 -99 -100
-232 -230 -295 -290 -251 -239 -541 -516 -655 -625 -66 -63 -165 -158 -220
-210 -55 -52 -296 -282 -535 -511 -239 -228 -588 -561 -775 -739 -187 -178
-583 -556 -880 -840 -746 -712 -728 -695 -787 -729 -144 -82 -336 -74 -475 20
-45 31 -72 60 -1302 1349 -449 470 -984 1030 -1189 1245 -206 214 -389 413
-407 440 -54 82 -69 137 -69 250 0 80 5 111 22 156 44 112 -53 14 1372 1373
294 280 578 551 630 601 52 50 151 145 220 210 69 66 175 167 235 226 61 58
308 295 550 526 242 230 609 580 815 777 206 197 404 383 440 413 80 67 172
119 252 145 102 31 273 35 2613 62 395 4 461 1 537 -23z m1075 -656 c365 -69
666 -317 690 -567 23 -246 -186 -479 -567 -633 -89 -36 -296 -99 -393 -120
l-28 -6 6 78 c8 104 30 508 50 888 9 171 18 325 21 343 l5 32 68 0 c38 0 105
-7 148 -15z m-2286 -503 c-30 -52 -72 -151 -92 -222 -8 -26 -13 -99 -14 -172
0 -140 -3 -144 -59 -77 -58 69 -71 107 -71 209 0 87 3 100 30 149 35 64 93
117 155 142 76 31 84 26 51 -29z"/>
</g>
</svg>
